{"title":"TiÃƒÂ«sto vs Diplo - CMon 1080p","uid":6471711,"size":195338597,"categoryP":"video","categoryS":"music_videos","magnet":"?xt=urn:btih:cdf4641eae895e7c42d904e3aedbc59377938edb&amp;dn=Ti%C3%83%C2%ABsto+vs+Diplo+-+CMon+1080p&amp;tr=udp%3A%2F%2Ftracker.openbittorrent.com%3A80&amp;tr=udp%3A%2F%2Fopen.demonii.com%3A1337&amp;tr=udp%3A%2F%2Ftracker.coppersurfer.tk%3A6969&amp;tr=udp%3A%2F%2Fexodus.desync.com%3A6969","seeders":1,"leechers":0,"uploader":"ankygautam","files":2,"time":1308162935,"description":"General\nComplete name                    : TiÃƒÂ«sto vs Diplo - CMon 1080p anky.mp4\nFormat                           : MPEG-4\nFormat profile                   : Base Media / Version 2\nCodec ID                         : mp42\nFile size                        : 186 MiB\nDuration                         : 5mn 21s\nOverall bit rate                 : 4 868 Kbps\n\n\nVideo\nID                               : 2\nFormat                           : AVC\nFormat/Info                      : Advanced Video Codec\nFormat profile                   : &lt;a class=&quot;__cf_email__&quot; href=&quot;/cdn-cgi/l/email-protection&quot; data-cfemail=&quot;dd95b4bab59d91e9f3ed&quot;&gt;[email&amp;#160;protected]&lt;/a&gt;&lt;script cf-hash='f9e31' type=&quot;text/javascript&quot;&gt;\n/* &lt;![CDATA[ */!function(){try{var t=&quot;currentScript&quot;in document?document.currentScript:function(){for(var t=document.getElementsByTagName(&quot;script&quot;),e=t.length;e--;)if(t[e].getAttribute(&quot;cf-hash&quot;))return t[e]}();if(t&amp;&amp;t.previousSibling){var e,r,n,i,c=t.previousSibling,a=c.getAttribute(&quot;data-cfemail&quot;);if(a){for(e=&quot;&quot;,r=parseInt(a.substr(0,2),16),n=2;a.length-n;n+=2)i=parseInt(a.substr(n,2),16)^r,e+=String.fromCharCode(i);e=document.createTextNode(e),c.parentNode.replaceChild(e,c)}}}catch(u){}}();/* ]]&gt; */&lt;/script&gt;\nFormat settings, CABAC           : Yes\nFormat settings, ReFrames        : 1 frame\nCodec ID                         : avc1\nCodec ID/Info                    : Advanced Video Coding\nDuration                         : 5mn 21s\nBit rate mode                    : Variable\nBit rate                         : 4 740 Kbps\nMaximum bit rate                 : 17.1 Mbps\nWidth                            : 1 920 pixels\nHeight                           : 1 080 pixels\nDisplay aspect ratio             : 16:9\nFrame rate mode                  : Constant\nFrame rate                       : 29.917 fps\nResolution                       : 24 bits\nColorimetry                      : 4:2:0\nScan type                        : Progressive\nBits/(Pixel*Frame)               : 0.076\nStream size                      : 181 MiB (97%)\n\n\nAudio\nID                               : 1\nFormat                           : AAC\nFormat/Info                      : Advanced Audio Codec\nFormat version                   : Version 4\nFormat profile                   : LC\nFormat settings, SBR             : No\nCodec ID                         : 40\nDuration                         : 5mn 21s\nBit rate mode                    : Variable\nBit rate                         : 125 Kbps\nMaximum bit rate                 : 272 Kbps\nChannel(s)                       : 2 channels\nChannel positions                : L R\nSampling rate                    : 44.1 KHz\nResolution                       : 16 bits\nStream size                      : 4.80 MiB (3%)\n\n\n\n\n","torrent":{"xt":"urn:btih:cdf4641eae895e7c42d904e3aedbc59377938edb","amp;dn":"Ti%C3%83%C2%ABsto+vs+Diplo+-+CMon+1080p","amp;tr":["udp%3A%2F%2Ftracker.openbittorrent.com%3A80","udp%3A%2F%2Fopen.demonii.com%3A1337","udp%3A%2F%2Ftracker.coppersurfer.tk%3A6969","udp%3A%2F%2Fexodus.desync.com%3A6969"],"infoHash":"cdf4641eae895e7c42d904e3aedbc59377938edb","infoHashBuffer":{"type":"Buffer","data":[205,244,100,30,174,137,94,124,66,217,4,227,174,219,197,147,119,147,142,219]},"announce":[],"urlList":[]}}